<svg width="24" height="21" viewBox="0 0 24 21" fill="none" xmlns="http://www.w3.org/2000/svg">
<path d="M1.74121 2.06934C4.37725 -0.566703 8.58173 -0.746391 11.2178 1.88965L11.8721 2.65527L12.6045 1.88965C15.1792 -0.685024 19.171 -0.56531 21.8184 1.88965L22.0049 2.06934C24.5795 4.64403 23.949 9.79005 21.4941 12.4375L21.1709 12.7783L20.8115 13.1455C19.4263 14.5367 17.3027 16.4412 14.4414 18.8594L12.8076 20.2295C12.2438 20.6986 11.4234 20.6911 10.8682 20.2119L8.85156 18.4609L7.05566 16.8818C4.9212 14.9891 3.31888 13.5074 2.24902 12.4375C-0.386923 9.80155 -0.894516 4.70545 1.74121 2.06934ZM20.7988 2.98926C18.6841 1.02826 15.6143 1.00045 13.6885 2.92578L11.8115 4.89062L10.1182 2.91211C8.11149 0.947931 4.88619 1.04545 2.80176 3.12988C0.866231 5.06583 1.13813 9.20552 3.30957 11.377L3.69922 11.7617C4.7961 12.8324 6.363 14.2679 8.39355 16.0625L9.83398 17.3281L11.8477 19.0762L13.4736 17.7139L14.6406 16.7207C16.8843 14.798 18.586 13.254 19.7344 12.1016L20.0811 11.748L20.3936 11.418C22.4739 9.1745 22.7842 4.96926 20.9648 3.14941L20.7988 2.98926Z" fill="#262626"/>
</svg>
