<svg width="16" height="16" viewBox="0 0 16 16" fill="none" xmlns="http://www.w3.org/2000/svg">
<path d="M8 5.33329L6.66667 3.99996L8 2.66663" stroke="#424242" stroke-linecap="round" stroke-linejoin="round"/>
<path d="M12 12H13.3333C13.5101 12 13.6797 11.9298 13.8047 11.8047C13.9298 11.6797 14 11.5101 14 11.3333V4.66667C14 4.48986 13.9298 4.32029 13.8047 4.19526C13.6797 4.07024 13.5101 4 13.3333 4H6.66667" stroke="#424242" stroke-linecap="round" stroke-linejoin="round"/>
<path d="M8.00001 10.6666L9.33334 12L8.00001 13.3333" stroke="#424242" stroke-linecap="round" stroke-linejoin="round"/>
<path d="M4.00001 4H2.66668C2.48987 4 2.3203 4.07024 2.19527 4.19526C2.07025 4.32029 2.00001 4.48986 2.00001 4.66667V11.3333C2.00001 11.5101 2.07025 11.6797 2.19527 11.8047C2.3203 11.9298 2.48987 12 2.66668 12H9.33334" stroke="#424242" stroke-linecap="round" stroke-linejoin="round"/>
</svg>
