<svg width="16" height="16" viewBox="0 0 16 16" fill="none" xmlns="http://www.w3.org/2000/svg">
<path d="M8 5.33341L6.66667 4.00008L8 2.66675" stroke="#424242" stroke-linecap="round" stroke-linejoin="round"/>
<path d="M12 12H13.3333C13.5101 12 13.6797 11.9298 13.8047 11.8047C13.9298 11.6797 14 11.5101 14 11.3333V4.66667C14 4.48986 13.9298 4.32029 13.8047 4.19526C13.6797 4.07024 13.5101 4 13.3333 4H6.66667" stroke="#424242" stroke-linecap="round" stroke-linejoin="round"/>
<path d="M8 10.6667L9.33334 12.0001L8 13.3334" stroke="#424242" stroke-linecap="round" stroke-linejoin="round"/>
<path d="M4 4H2.66667C2.48986 4 2.32029 4.07024 2.19526 4.19526C2.07024 4.32029 2 4.48986 2 4.66667V11.3333C2 11.5101 2.07024 11.6797 2.19526 11.8047C2.32029 11.9298 2.48986 12 2.66667 12H9.33334" stroke="#424242" stroke-linecap="round" stroke-linejoin="round"/>
</svg>
