<svg width="24" height="25" viewBox="0 0 24 25" fill="none" xmlns="http://www.w3.org/2000/svg">
<path d="M13.2695 0.219727C13.5624 -0.0731235 14.0372 -0.0731523 14.3301 0.219727C14.5963 0.485995 14.6202 0.902693 14.4023 1.19629L14.3301 1.28027L12.5381 3.07227H15.2363C14.9689 3.53428 14.7668 4.03884 14.6426 4.57324H6.5C3.73858 4.57324 1.5 6.81182 1.5 9.57324V18.0732C1.5 20.8347 3.73858 23.0732 6.5 23.0732H15.5C18.2614 23.0732 20.5 20.8347 20.5 18.0732L20.501 11.3008C21.0257 11.2534 21.5292 11.1326 22.001 10.9482L22 18.0732C22 21.6631 19.0899 24.5732 15.5 24.5732H6.5C2.91015 24.5732 0 21.6631 0 18.0732V9.57324C2.06162e-06 5.98339 2.91015 3.07324 6.5 3.07324H9.46191L7.66992 1.28027C7.4037 1.01401 7.37981 0.597307 7.59766 0.303711L7.66992 0.219727C7.93619 -0.04654 8.35287 -0.0703935 8.64648 0.147461L8.73047 0.219727L11 2.48926L13.2695 0.219727ZM10.7148 11.8438C11.1589 11.7261 11.5951 12.0304 11.6514 12.4717L11.6572 12.5684V14.4336L16.5889 13.1768C16.9902 13.0745 17.3986 13.3165 17.501 13.7178C17.5947 14.0856 17.399 14.46 17.0566 14.5986L16.959 14.6299L11.0928 16.126C10.6503 16.2388 10.2187 15.934 10.1631 15.4951L10.1572 15.3984V13.543L5.42188 14.7979C5.02164 14.9037 4.61103 14.6658 4.50488 14.2656C4.4076 13.8986 4.60027 13.5227 4.94141 13.3809L5.03809 13.3486L10.7148 11.8438Z" fill="#262626"/>
<path fill-rule="evenodd" clip-rule="evenodd" d="M20 9.82325C22.2091 9.82325 24 8.03238 24 5.82325C24 3.61411 22.2091 1.82325 20 1.82325C17.7909 1.82325 16 3.61411 16 5.82325C16 8.03238 17.7909 9.82325 20 9.82325Z" fill="#ED4956"/>
</svg>
